# https://github.com/mikedh/trimesh
v 0.00000000 -0.50000000 0.46900000
v 0.23450000 -0.50000000 0.40616591
v 0.40616591 -0.50000000 0.23450000
v 0.46900000 -0.50000000 0.00000000
v 0.40616591 -0.50000000 -0.23450000
v 0.23450000 -0.50000000 -0.40616591
v 0.00000000 -0.50000000 -0.46900000
v -0.23450000 -0.50000000 -0.40616591
v -0.40616591 -0.50000000 -0.23450000
v -0.46900000 -0.50000000 -0.00000000
v -0.40616591 -0.50000000 0.23450000
v -0.23450000 -0.50000000 0.40616591
v 0.00000000 -0.47500000 0.50000000
v 0.25000000 -0.47500000 0.43301270
v 0.43301270 -0.47500000 0.25000000
v 0.50000000 -0.47500000 0.00000000
v 0.43301270 -0.47500000 -0.25000000
v 0.25000000 -0.47500000 -0.43301270
v 0.00000000 -0.47500000 -0.50000000
v -0.25000000 -0.47500000 -0.43301270
v -0.43301270 -0.47500000 -0.25000000
v -0.50000000 -0.47500000 -0.00000000
v -0.43301270 -0.47500000 0.25000000
v -0.25000000 -0.47500000 0.43301270
v 0.00000000 -0.34000000 0.50000000
v 0.25000000 -0.34000000 0.43301270
v 0.43301270 -0.34000000 0.25000000
v 0.50000000 -0.34000000 0.00000000
v 0.43301270 -0.34000000 -0.25000000
v 0.25000000 -0.34000000 -0.43301270
v 0.00000000 -0.34000000 -0.50000000
v -0.25000000 -0.34000000 -0.43301270
v -0.43301270 -0.34000000 -0.25000000
v -0.50000000 -0.34000000 -0.00000000
v -0.43301270 -0.34000000 0.25000000
v -0.25000000 -0.34000000 0.43301270
v 0.00000000 -0.10000000 0.45300000
v 0.22650000 -0.10000000 0.39230951
v 0.39230951 -0.10000000 0.22650000
v 0.45300000 -0.10000000 0.00000000
v 0.39230951 -0.10000000 -0.22650000
v 0.22650000 -0.10000000 -0.39230951
v 0.00000000 -0.10000000 -0.45300000
v -0.22650000 -0.10000000 -0.39230951
v -0.39230951 -0.10000000 -0.22650000
v -0.45300000 -0.10000000 -0.00000000
v -0.39230951 -0.10000000 0.22650000
v -0.22650000 -0.10000000 0.39230951
v 0.00000000 0.10000000 0.45300000
v 0.22650000 0.10000000 0.39230951
v 0.39230951 0.10000000 0.22650000
v 0.45300000 0.10000000 0.00000000
v 0.39230951 0.10000000 -0.22650000
v 0.22650000 0.10000000 -0.39230951
v 0.00000000 0.10000000 -0.45300000
v -0.22650000 0.10000000 -0.39230951
v -0.39230951 0.10000000 -0.22650000
v -0.45300000 0.10000000 -0.00000000
v -0.39230951 0.10000000 0.22650000
v -0.22650000 0.10000000 0.39230951
v 0.00000000 0.34000000 0.50000000
v 0.25000000 0.34000000 0.43301270
v 0.43301270 0.34000000 0.25000000
v 0.50000000 0.34000000 0.00000000
v 0.43301270 0.34000000 -0.25000000
v 0.25000000 0.34000000 -0.43301270
v 0.00000000 0.34000000 -0.50000000
v -0.25000000 0.34000000 -0.43301270
v -0.43301270 0.34000000 -0.25000000
v -0.50000000 0.34000000 -0.00000000
v -0.43301270 0.34000000 0.25000000
v -0.25000000 0.34000000 0.43301270
v 0.00000000 0.47500000 0.50000000
v 0.25000000 0.47500000 0.43301270
v 0.43301270 0.47500000 0.25000000
v 0.50000000 0.47500000 0.00000000
v 0.43301270 0.47500000 -0.25000000
v 0.25000000 0.47500000 -0.43301270
v 0.00000000 0.47500000 -0.50000000
v -0.25000000 0.47500000 -0.43301270
v -0.43301270 0.47500000 -0.25000000
v -0.50000000 0.47500000 -0.00000000
v -0.43301270 0.47500000 0.25000000
v -0.25000000 0.47500000 0.43301270
v 0.00000000 0.50000000 0.46900000
v 0.23450000 0.50000000 0.40616591
v 0.40616591 0.50000000 0.23450000
v 0.46900000 0.50000000 0.00000000
v 0.40616591 0.50000000 -0.23450000
v 0.23450000 0.50000000 -0.40616591
v 0.00000000 0.50000000 -0.46900000
v -0.23450000 0.50000000 -0.40616591
v -0.40616591 0.50000000 -0.23450000
v -0.46900000 0.50000000 -0.00000000
v -0.40616591 0.50000000 0.23450000
v -0.23450000 0.50000000 0.40616591
v 0.00000000 -0.50000000 0.00000000
v 0.00000000 0.50000000 0.00000000
v 0.00000000 -0.31250000 -0.00000000
v 0.51500000 -0.31250000 -0.00000000
v 0.51500000 -0.36750000 0.00000000
v 0.00000000 -0.36750000 0.00000000
v 0.44600308 -0.31250000 0.25750000
v 0.44600308 -0.36750000 0.25750000
v 0.25750000 -0.31250000 0.44600308
v 0.25750000 -0.36750000 0.44600308
v 0.00000000 -0.31250000 0.51500000
v 0.00000000 -0.36750000 0.51500000
v -0.25750000 -0.31250000 0.44600308
v -0.25750000 -0.36750000 0.44600308
v -0.44600308 -0.31250000 0.25750000
v -0.44600308 -0.36750000 0.25750000
v -0.51500000 -0.31250000 0.00000000
v -0.51500000 -0.36750000 0.00000000
v -0.44600308 -0.31250000 -0.25750000
v -0.44600308 -0.36750000 -0.25750000
v -0.25750000 -0.31250000 -0.44600308
v -0.25750000 -0.36750000 -0.44600308
v -0.00000000 -0.31250000 -0.51500000
v -0.00000000 -0.36750000 -0.51500000
v 0.25750000 -0.31250000 -0.44600308
v 0.25750000 -0.36750000 -0.44600308
v 0.44600308 -0.31250000 -0.25750000
v 0.44600308 -0.36750000 -0.25750000
v 0.00000000 0.02750000 -0.00000000
v 0.47500000 0.02750000 -0.00000000
v 0.47500000 -0.02750000 0.00000000
v 0.00000000 -0.02750000 0.00000000
v 0.41136207 0.02750000 0.23750000
v 0.41136207 -0.02750000 0.23750000
v 0.23750000 0.02750000 0.41136207
v 0.23750000 -0.02750000 0.41136207
v 0.00000000 0.02750000 0.47500000
v 0.00000000 -0.02750000 0.47500000
v -0.23750000 0.02750000 0.41136207
v -0.23750000 -0.02750000 0.41136207
v -0.41136207 0.02750000 0.23750000
v -0.41136207 -0.02750000 0.23750000
v -0.47500000 0.02750000 0.00000000
v -0.47500000 -0.02750000 0.00000000
v -0.41136207 0.02750000 -0.23750000
v -0.41136207 -0.02750000 -0.23750000
v -0.23750000 0.02750000 -0.41136207
v -0.23750000 -0.02750000 -0.41136207
v -0.00000000 0.02750000 -0.47500000
v -0.00000000 -0.02750000 -0.47500000
v 0.23750000 0.02750000 -0.41136207
v 0.23750000 -0.02750000 -0.41136207
v 0.41136207 0.02750000 -0.23750000
v 0.41136207 -0.02750000 -0.23750000
v 0.00000000 0.36750000 -0.00000000
v 0.51500000 0.36750000 -0.00000000
v 0.51500000 0.31250000 0.00000000
v 0.00000000 0.31250000 0.00000000
v 0.44600308 0.36750000 0.25750000
v 0.44600308 0.31250000 0.25750000
v 0.25750000 0.36750000 0.44600308
v 0.25750000 0.31250000 0.44600308
v 0.00000000 0.36750000 0.51500000
v 0.00000000 0.31250000 0.51500000
v -0.25750000 0.36750000 0.44600308
v -0.25750000 0.31250000 0.44600308
v -0.44600308 0.36750000 0.25750000
v -0.44600308 0.31250000 0.25750000
v -0.51500000 0.36750000 0.00000000
v -0.51500000 0.31250000 0.00000000
v -0.44600308 0.36750000 -0.25750000
v -0.44600308 0.31250000 -0.25750000
v -0.25750000 0.36750000 -0.44600308
v -0.25750000 0.31250000 -0.44600308
v -0.00000000 0.36750000 -0.51500000
v -0.00000000 0.31250000 -0.51500000
v 0.25750000 0.36750000 -0.44600308
v 0.25750000 0.31250000 -0.44600308
v 0.44600308 0.36750000 -0.25750000
v 0.44600308 0.31250000 -0.25750000
vn -0.00000000 -0.92487664 0.38026728
vn 0.19013364 -0.92487664 0.32932113
vn 0.32932113 -0.92487664 0.19013364
vn 0.38026728 -0.92487664 0.00000000
vn 0.32932113 -0.92487664 -0.19013364
vn 0.19013364 -0.92487664 -0.32932113
vn 0.00000000 -0.92487664 -0.38026728
vn -0.19013364 -0.92487664 -0.32932113
vn -0.32932113 -0.92487664 -0.19013364
vn -0.38026728 -0.92487664 -0.00000000
vn -0.32932113 -0.92487664 0.19013364
vn -0.19013364 -0.92487664 0.32932113
vn -0.00000000 -0.40593119 0.91390364
vn 0.45695182 -0.40593119 0.79146377
vn 0.79146377 -0.40593119 0.45695182
vn 0.91390364 -0.40593119 -0.00000000
vn 0.79146377 -0.40593119 -0.45695182
vn 0.45695182 -0.40593119 -0.79146377
vn 0.00000000 -0.40593119 -0.91390364
vn -0.45695182 -0.40593119 -0.79146377
vn -0.79146377 -0.40593119 -0.45695182
vn -0.91390364 -0.40593119 -0.00000000
vn -0.79146377 -0.40593119 0.45695182
vn -0.45695182 -0.40593119 0.79146377
vn -0.00000000 0.09504825 0.99547267
vn 0.49773633 0.09504825 0.86210462
vn 0.86210462 0.09504825 0.49773633
vn 0.99547267 0.09504825 0.00000000
vn 0.86210462 0.09504825 -0.49773633
vn 0.49773633 0.09504825 -0.86210462
vn 0.00000000 0.09504825 -0.99547267
vn -0.49773633 0.09504825 -0.86210462
vn -0.86210462 0.09504825 -0.49773633
vn -0.99547267 0.09504825 -0.00000000
vn -0.86210462 0.09504825 0.49773633
vn -0.49773633 0.09504825 0.86210462
vn -0.00000000 0.09810736 0.99517584
vn 0.49758792 0.09810736 0.86184756
vn 0.86184756 0.09810736 0.49758792
vn 0.99517584 0.09810736 0.00000000
vn 0.86184756 0.09810736 -0.49758792
vn 0.49758792 0.09810736 -0.86184756
vn 0.00000000 0.09810736 -0.99517584
vn -0.49758792 0.09810736 -0.86184756
vn -0.86184756 0.09810736 -0.49758792
vn -0.99517584 0.09810736 -0.00000000
vn -0.86184756 0.09810736 0.49758792
vn -0.49758792 0.09810736 0.86184756
vn -0.00000000 -0.09810736 0.99517584
vn 0.49758792 -0.09810736 0.86184756
vn 0.86184756 -0.09810736 0.49758792
vn 0.99517584 -0.09810736 0.00000000
vn 0.86184756 -0.09810736 -0.49758792
vn 0.49758792 -0.09810736 -0.86184756
vn 0.00000000 -0.09810736 -0.99517584
vn -0.49758792 -0.09810736 -0.86184756
vn -0.86184756 -0.09810736 -0.49758792
vn -0.99517584 -0.09810736 -0.00000000
vn -0.86184756 -0.09810736 0.49758792
vn -0.49758792 -0.09810736 0.86184756
vn -0.00000000 -0.09504825 0.99547267
vn 0.49773633 -0.09504825 0.86210462
vn 0.86210462 -0.09504825 0.49773633
vn 0.99547267 -0.09504825 0.00000000
vn 0.86210462 -0.09504825 -0.49773633
vn 0.49773633 -0.09504825 -0.86210462
vn 0.00000000 -0.09504825 -0.99547267
vn -0.49773633 -0.09504825 -0.86210462
vn -0.86210462 -0.09504825 -0.49773633
vn -0.99547267 -0.09504825 -0.00000000
vn -0.86210462 -0.09504825 0.49773633
vn -0.49773633 -0.09504825 0.86210462
vn -0.00000000 0.40593119 0.91390364
vn 0.45695182 0.40593119 0.79146377
vn 0.79146377 0.40593119 0.45695182
vn 0.91390364 0.40593119 0.00000000
vn 0.79146377 0.40593119 -0.45695182
vn 0.45695182 0.40593119 -0.79146377
vn 0.00000000 0.40593119 -0.91390364
vn -0.45695182 0.40593119 -0.79146377
vn -0.79146377 0.40593119 -0.45695182
vn -0.91390364 0.40593119 -0.00000000
vn -0.79146377 0.40593119 0.45695182
vn -0.45695182 0.40593119 0.79146377
vn -0.00000000 0.92487664 0.38026728
vn 0.19013364 0.92487664 0.32932113
vn 0.32932113 0.92487664 0.19013364
vn 0.38026728 0.92487664 0.00000000
vn 0.32932113 0.92487664 -0.19013364
vn 0.19013364 0.92487664 -0.32932113
vn 0.00000000 0.92487664 -0.38026728
vn -0.19013364 0.92487664 -0.32932113
vn -0.32932113 0.92487664 -0.19013364
vn -0.38026728 0.92487664 -0.00000000
vn -0.32932113 0.92487664 0.19013364
vn -0.19013364 0.92487664 0.32932113
vn 0.00000000 -1.00000000 0.00000000
vn 0.00000000 1.00000000 0.00000000
vn -0.00000000 1.00000000 -0.00000000
vn 0.75716233 0.65322677 -0.00000000
vn 0.75716233 -0.65322677 -0.00000000
vn 0.00000000 -1.00000000 0.00000000
vn 0.65572181 0.65322677 0.37858116
vn 0.65572181 -0.65322677 0.37858116
vn 0.37858116 0.65322677 0.65572181
vn 0.37858116 -0.65322677 0.65572181
vn 0.00000000 0.65322677 0.75716233
vn 0.00000000 -0.65322677 0.75716233
vn -0.37858116 0.65322677 0.65572181
vn -0.37858116 -0.65322677 0.65572181
vn -0.65572181 0.65322677 0.37858116
vn -0.65572181 -0.65322677 0.37858116
vn -0.75716233 0.65322677 0.00000000
vn -0.75716233 -0.65322677 0.00000000
vn -0.65572181 0.65322677 -0.37858116
vn -0.65572181 -0.65322677 -0.37858116
vn -0.37858116 0.65322677 -0.65572181
vn -0.37858116 -0.65322677 -0.65572181
vn -0.00000000 0.65322677 -0.75716233
vn -0.00000000 -0.65322677 -0.75716233
vn 0.37858116 0.65322677 -0.65572181
vn 0.37858116 -0.65322677 -0.65572181
vn 0.65572181 0.65322677 -0.37858116
vn 0.65572181 -0.65322677 -0.37858116
vn -0.00000000 1.00000000 -0.00000000
vn 0.75716233 0.65322677 -0.00000000
vn 0.75716233 -0.65322677 -0.00000000
vn 0.00000000 -1.00000000 0.00000000
vn 0.65572181 0.65322677 0.37858116
vn 0.65572181 -0.65322677 0.37858116
vn 0.37858116 0.65322677 0.65572181
vn 0.37858116 -0.65322677 0.65572181
vn 0.00000000 0.65322677 0.75716233
vn -0.00000000 -0.65322677 0.75716233
vn -0.37858116 0.65322677 0.65572181
vn -0.37858116 -0.65322677 0.65572181
vn -0.65572181 0.65322677 0.37858116
vn -0.65572181 -0.65322677 0.37858116
vn -0.75716233 0.65322677 0.00000000
vn -0.75716233 -0.65322677 0.00000000
vn -0.65572181 0.65322677 -0.37858116
vn -0.65572181 -0.65322677 -0.37858116
vn -0.37858116 0.65322677 -0.65572181
vn -0.37858116 -0.65322677 -0.65572181
vn -0.00000000 0.65322677 -0.75716233
vn -0.00000000 -0.65322677 -0.75716233
vn 0.37858116 0.65322677 -0.65572181
vn 0.37858116 -0.65322677 -0.65572181
vn 0.65572181 0.65322677 -0.37858116
vn 0.65572181 -0.65322677 -0.37858116
vn -0.00000000 1.00000000 -0.00000000
vn 0.75716233 0.65322677 -0.00000000
vn 0.75716233 -0.65322677 -0.00000000
vn 0.00000000 -1.00000000 0.00000000
vn 0.65572181 0.65322677 0.37858116
vn 0.65572181 -0.65322677 0.37858116
vn 0.37858116 0.65322677 0.65572181
vn 0.37858116 -0.65322677 0.65572181
vn 0.00000000 0.65322677 0.75716233
vn 0.00000000 -0.65322677 0.75716233
vn -0.37858116 0.65322677 0.65572181
vn -0.37858116 -0.65322677 0.65572181
vn -0.65572181 0.65322677 0.37858116
vn -0.65572181 -0.65322677 0.37858116
vn -0.75716233 0.65322677 0.00000000
vn -0.75716233 -0.65322677 0.00000000
vn -0.65572181 0.65322677 -0.37858116
vn -0.65572181 -0.65322677 -0.37858116
vn -0.37858116 0.65322677 -0.65572181
vn -0.37858116 -0.65322677 -0.65572181
vn -0.00000000 0.65322677 -0.75716233
vn -0.00000000 -0.65322677 -0.75716233
vn 0.37858116 0.65322677 -0.65572181
vn 0.37858116 -0.65322677 -0.65572181
vn 0.65572181 0.65322677 -0.37858116
vn 0.65572181 -0.65322677 -0.37858116
f 1//1 2//2 14//14
f 1//1 14//14 13//13
f 2//2 3//3 15//15
f 2//2 15//15 14//14
f 3//3 4//4 16//16
f 3//3 16//16 15//15
f 4//4 5//5 17//17
f 4//4 17//17 16//16
f 5//5 6//6 18//18
f 5//5 18//18 17//17
f 6//6 7//7 19//19
f 6//6 19//19 18//18
f 7//7 8//8 20//20
f 7//7 20//20 19//19
f 8//8 9//9 21//21
f 8//8 21//21 20//20
f 9//9 10//10 22//22
f 9//9 22//22 21//21
f 10//10 11//11 23//23
f 10//10 23//23 22//22
f 11//11 12//12 24//24
f 11//11 24//24 23//23
f 12//12 1//1 13//13
f 12//12 13//13 24//24
f 13//13 14//14 26//26
f 13//13 26//26 25//25
f 14//14 15//15 27//27
f 14//14 27//27 26//26
f 15//15 16//16 28//28
f 15//15 28//28 27//27
f 16//16 17//17 29//29
f 16//16 29//29 28//28
f 17//17 18//18 30//30
f 17//17 30//30 29//29
f 18//18 19//19 31//31
f 18//18 31//31 30//30
f 19//19 20//20 32//32
f 19//19 32//32 31//31
f 20//20 21//21 33//33
f 20//20 33//33 32//32
f 21//21 22//22 34//34
f 21//21 34//34 33//33
f 22//22 23//23 35//35
f 22//22 35//35 34//34
f 23//23 24//24 36//36
f 23//23 36//36 35//35
f 24//24 13//13 25//25
f 24//24 25//25 36//36
f 25//25 26//26 38//38
f 25//25 38//38 37//37
f 26//26 27//27 39//39
f 26//26 39//39 38//38
f 27//27 28//28 40//40
f 27//27 40//40 39//39
f 28//28 29//29 41//41
f 28//28 41//41 40//40
f 29//29 30//30 42//42
f 29//29 42//42 41//41
f 30//30 31//31 43//43
f 30//30 43//43 42//42
f 31//31 32//32 44//44
f 31//31 44//44 43//43
f 32//32 33//33 45//45
f 32//32 45//45 44//44
f 33//33 34//34 46//46
f 33//33 46//46 45//45
f 34//34 35//35 47//47
f 34//34 47//47 46//46
f 35//35 36//36 48//48
f 35//35 48//48 47//47
f 36//36 25//25 37//37
f 36//36 37//37 48//48
f 37//37 38//38 50//50
f 37//37 50//50 49//49
f 38//38 39//39 51//51
f 38//38 51//51 50//50
f 39//39 40//40 52//52
f 39//39 52//52 51//51
f 40//40 41//41 53//53
f 40//40 53//53 52//52
f 41//41 42//42 54//54
f 41//41 54//54 53//53
f 42//42 43//43 55//55
f 42//42 55//55 54//54
f 43//43 44//44 56//56
f 43//43 56//56 55//55
f 44//44 45//45 57//57
f 44//44 57//57 56//56
f 45//45 46//46 58//58
f 45//45 58//58 57//57
f 46//46 47//47 59//59
f 46//46 59//59 58//58
f 47//47 48//48 60//60
f 47//47 60//60 59//59
f 48//48 37//37 49//49
f 48//48 49//49 60//60
f 49//49 50//50 62//62
f 49//49 62//62 61//61
f 50//50 51//51 63//63
f 50//50 63//63 62//62
f 51//51 52//52 64//64
f 51//51 64//64 63//63
f 52//52 53//53 65//65
f 52//52 65//65 64//64
f 53//53 54//54 66//66
f 53//53 66//66 65//65
f 54//54 55//55 67//67
f 54//54 67//67 66//66
f 55//55 56//56 68//68
f 55//55 68//68 67//67
f 56//56 57//57 69//69
f 56//56 69//69 68//68
f 57//57 58//58 70//70
f 57//57 70//70 69//69
f 58//58 59//59 71//71
f 58//58 71//71 70//70
f 59//59 60//60 72//72
f 59//59 72//72 71//71
f 60//60 49//49 61//61
f 60//60 61//61 72//72
f 61//61 62//62 74//74
f 61//61 74//74 73//73
f 62//62 63//63 75//75
f 62//62 75//75 74//74
f 63//63 64//64 76//76
f 63//63 76//76 75//75
f 64//64 65//65 77//77
f 64//64 77//77 76//76
f 65//65 66//66 78//78
f 65//65 78//78 77//77
f 66//66 67//67 79//79
f 66//66 79//79 78//78
f 67//67 68//68 80//80
f 67//67 80//80 79//79
f 68//68 69//69 81//81
f 68//68 81//81 80//80
f 69//69 70//70 82//82
f 69//69 82//82 81//81
f 70//70 71//71 83//83
f 70//70 83//83 82//82
f 71//71 72//72 84//84
f 71//71 84//84 83//83
f 72//72 61//61 73//73
f 72//72 73//73 84//84
f 73//73 74//74 86//86
f 73//73 86//86 85//85
f 74//74 75//75 87//87
f 74//74 87//87 86//86
f 75//75 76//76 88//88
f 75//75 88//88 87//87
f 76//76 77//77 89//89
f 76//76 89//89 88//88
f 77//77 78//78 90//90
f 77//77 90//90 89//89
f 78//78 79//79 91//91
f 78//78 91//91 90//90
f 79//79 80//80 92//92
f 79//79 92//92 91//91
f 80//80 81//81 93//93
f 80//80 93//93 92//92
f 81//81 82//82 94//94
f 81//81 94//94 93//93
f 82//82 83//83 95//95
f 82//82 95//95 94//94
f 83//83 84//84 96//96
f 83//83 96//96 95//95
f 84//84 73//73 85//85
f 84//84 85//85 96//96
f 97//97 2//2 1//1
f 98//98 85//85 86//86
f 97//97 3//3 2//2
f 98//98 86//86 87//87
f 97//97 4//4 3//3
f 98//98 87//87 88//88
f 97//97 5//5 4//4
f 98//98 88//88 89//89
f 97//97 6//6 5//5
f 98//98 89//89 90//90
f 97//97 7//7 6//6
f 98//98 90//90 91//91
f 97//97 8//8 7//7
f 98//98 91//91 92//92
f 97//97 9//9 8//8
f 98//98 92//92 93//93
f 97//97 10//10 9//9
f 98//98 93//93 94//94
f 97//97 11//11 10//10
f 98//98 94//94 95//95
f 97//97 12//12 11//11
f 98//98 95//95 96//96
f 97//97 1//1 12//12
f 98//98 96//96 85//85
f 100//100 99//99 103//103
f 100//100 103//103 101//101
f 101//101 103//103 104//104
f 101//101 104//104 102//102
f 103//103 99//99 105//105
f 103//103 105//105 104//104
f 104//104 105//105 106//106
f 104//104 106//106 102//102
f 105//105 99//99 107//107
f 105//105 107//107 106//106
f 106//106 107//107 108//108
f 106//106 108//108 102//102
f 107//107 99//99 109//109
f 107//107 109//109 108//108
f 108//108 109//109 110//110
f 108//108 110//110 102//102
f 109//109 99//99 111//111
f 109//109 111//111 110//110
f 110//110 111//111 112//112
f 110//110 112//112 102//102
f 111//111 99//99 113//113
f 111//111 113//113 112//112
f 112//112 113//113 114//114
f 112//112 114//114 102//102
f 113//113 99//99 115//115
f 113//113 115//115 114//114
f 114//114 115//115 116//116
f 114//114 116//116 102//102
f 115//115 99//99 117//117
f 115//115 117//117 116//116
f 116//116 117//117 118//118
f 116//116 118//118 102//102
f 117//117 99//99 119//119
f 117//117 119//119 118//118
f 118//118 119//119 120//120
f 118//118 120//120 102//102
f 119//119 99//99 121//121
f 119//119 121//121 120//120
f 120//120 121//121 122//122
f 120//120 122//122 102//102
f 121//121 99//99 123//123
f 121//121 123//123 122//122
f 122//122 123//123 124//124
f 122//122 124//124 102//102
f 123//123 99//99 100//100
f 123//123 100//100 124//124
f 124//124 100//100 101//101
f 124//124 101//101 102//102
f 126//126 125//125 129//129
f 126//126 129//129 127//127
f 127//127 129//129 130//130
f 127//127 130//130 128//128
f 129//129 125//125 131//131
f 129//129 131//131 130//130
f 130//130 131//131 132//132
f 130//130 132//132 128//128
f 131//131 125//125 133//133
f 131//131 133//133 132//132
f 132//132 133//133 134//134
f 132//132 134//134 128//128
f 133//133 125//125 135//135
f 133//133 135//135 134//134
f 134//134 135//135 136//136
f 134//134 136//136 128//128
f 135//135 125//125 137//137
f 135//135 137//137 136//136
f 136//136 137//137 138//138
f 136//136 138//138 128//128
f 137//137 125//125 139//139
f 137//137 139//139 138//138
f 138//138 139//139 140//140
f 138//138 140//140 128//128
f 139//139 125//125 141//141
f 139//139 141//141 140//140
f 140//140 141//141 142//142
f 140//140 142//142 128//128
f 141//141 125//125 143//143
f 141//141 143//143 142//142
f 142//142 143//143 144//144
f 142//142 144//144 128//128
f 143//143 125//125 145//145
f 143//143 145//145 144//144
f 144//144 145//145 146//146
f 144//144 146//146 128//128
f 145//145 125//125 147//147
f 145//145 147//147 146//146
f 146//146 147//147 148//148
f 146//146 148//148 128//128
f 147//147 125//125 149//149
f 147//147 149//149 148//148
f 148//148 149//149 150//150
f 148//148 150//150 128//128
f 149//149 125//125 126//126
f 149//149 126//126 150//150
f 150//150 126//126 127//127
f 150//150 127//127 128//128
f 152//152 151//151 155//155
f 152//152 155//155 153//153
f 153//153 155//155 156//156
f 153//153 156//156 154//154
f 155//155 151//151 157//157
f 155//155 157//157 156//156
f 156//156 157//157 158//158
f 156//156 158//158 154//154
f 157//157 151//151 159//159
f 157//157 159//159 158//158
f 158//158 159//159 160//160
f 158//158 160//160 154//154
f 159//159 151//151 161//161
f 159//159 161//161 160//160
f 160//160 161//161 162//162
f 160//160 162//162 154//154
f 161//161 151//151 163//163
f 161//161 163//163 162//162
f 162//162 163//163 164//164
f 162//162 164//164 154//154
f 163//163 151//151 165//165
f 163//163 165//165 164//164
f 164//164 165//165 166//166
f 164//164 166//166 154//154
f 165//165 151//151 167//167
f 165//165 167//167 166//166
f 166//166 167//167 168//168
f 166//166 168//168 154//154
f 167//167 151//151 169//169
f 167//167 169//169 168//168
f 168//168 169//169 170//170
f 168//168 170//170 154//154
f 169//169 151//151 171//171
f 169//169 171//171 170//170
f 170//170 171//171 172//172
f 170//170 172//172 154//154
f 171//171 151//151 173//173
f 171//171 173//173 172//172
f 172//172 173//173 174//174
f 172//172 174//174 154//154
f 173//173 151//151 175//175
f 173//173 175//175 174//174
f 174//174 175//175 176//176
f 174//174 176//176 154//154
f 175//175 151//151 152//152
f 175//175 152//152 176//176
f 176//176 152//152 153//153
f 176//176 153//153 154//154

