# https://github.com/mikedh/trimesh
v -2.00000000 0.00000000 1.10000000
v -2.00000000 0.00000000 2.00000000
v -2.00000000 0.15000000 1.10000000
v -2.00000000 0.15000000 2.00000000
v 2.00000000 0.00000000 1.10000000
v 2.00000000 0.00000000 2.00000000
v 2.00000000 0.15000000 1.10000000
v 2.00000000 0.15000000 2.00000000
v -2.00000000 0.00000000 0.05000000
v -2.00000000 0.00000000 1.00000000
v -2.00000000 0.15000000 0.05000000
v -2.00000000 0.15000000 1.00000000
v 2.00000000 0.00000000 0.05000000
v 2.00000000 0.00000000 1.00000000
v 2.00000000 0.15000000 0.05000000
v 2.00000000 0.15000000 1.00000000
v -2.00000000 0.00000000 -1.00000000
v -2.00000000 0.00000000 -0.05000000
v -2.00000000 0.15000000 -1.00000000
v -2.00000000 0.15000000 -0.05000000
v 2.00000000 0.00000000 -1.00000000
v 2.00000000 0.00000000 -0.05000000
v 2.00000000 0.15000000 -1.00000000
v 2.00000000 0.15000000 -0.05000000
v -2.00000000 0.00000000 -2.00000000
v -2.00000000 0.00000000 -1.10000000
v -2.00000000 0.15000000 -2.00000000
v -2.00000000 0.15000000 -1.10000000
v 2.00000000 0.00000000 -2.00000000
v 2.00000000 0.00000000 -1.10000000
v 2.00000000 0.15000000 -2.00000000
v 2.00000000 0.15000000 -1.10000000
v -2.00000000 0.35000000 1.10000000
v -2.00000000 0.35000000 2.00000000
v -2.00000000 0.50000000 1.10000000
v -2.00000000 0.50000000 2.00000000
v 2.00000000 0.35000000 1.10000000
v 2.00000000 0.35000000 2.00000000
v 2.00000000 0.50000000 1.10000000
v 2.00000000 0.50000000 2.00000000
v -2.00000000 0.35000000 0.05000000
v -2.00000000 0.35000000 1.00000000
v -2.00000000 0.50000000 0.05000000
v -2.00000000 0.50000000 1.00000000
v 2.00000000 0.35000000 0.05000000
v 2.00000000 0.35000000 1.00000000
v 2.00000000 0.50000000 0.05000000
v 2.00000000 0.50000000 1.00000000
v -2.00000000 0.35000000 -1.00000000
v -2.00000000 0.35000000 -0.05000000
v -2.00000000 0.50000000 -1.00000000
v -2.00000000 0.50000000 -0.05000000
v 2.00000000 0.35000000 -1.00000000
v 2.00000000 0.35000000 -0.05000000
v 2.00000000 0.50000000 -1.00000000
v 2.00000000 0.50000000 -0.05000000
v -2.00000000 0.35000000 -2.00000000
v -2.00000000 0.35000000 -1.10000000
v -2.00000000 0.50000000 -2.00000000
v -2.00000000 0.50000000 -1.10000000
v 2.00000000 0.35000000 -2.00000000
v 2.00000000 0.35000000 -1.10000000
v 2.00000000 0.50000000 -2.00000000
v 2.00000000 0.50000000 -1.10000000
v -1.80000000 0.15000000 -2.00000000
v -1.80000000 0.15000000 2.00000000
v -1.80000000 0.35000000 -2.00000000
v -1.80000000 0.35000000 2.00000000
v -1.20000000 0.15000000 -2.00000000
v -1.20000000 0.15000000 2.00000000
v -1.20000000 0.35000000 -2.00000000
v -1.20000000 0.35000000 2.00000000
v -0.30000000 0.15000000 -2.00000000
v -0.30000000 0.15000000 2.00000000
v -0.30000000 0.35000000 -2.00000000
v -0.30000000 0.35000000 2.00000000
v 0.30000000 0.15000000 -2.00000000
v 0.30000000 0.15000000 2.00000000
v 0.30000000 0.35000000 -2.00000000
v 0.30000000 0.35000000 2.00000000
v 1.20000000 0.15000000 -2.00000000
v 1.20000000 0.15000000 2.00000000
v 1.20000000 0.35000000 -2.00000000
v 1.20000000 0.35000000 2.00000000
v 1.80000000 0.15000000 -2.00000000
v 1.80000000 0.15000000 2.00000000
v 1.80000000 0.35000000 -2.00000000
v 1.80000000 0.35000000 2.00000000
v -1.50000000 0.50000000 -1.25000000
v -1.50000000 0.50000000 -0.25000000
v -1.50000000 1.30000000 -1.25000000
v -1.50000000 1.30000000 -0.25000000
v -0.30000000 0.50000000 -1.25000000
v -0.30000000 0.50000000 -0.25000000
v -0.30000000 1.30000000 -1.25000000
v -0.30000000 1.30000000 -0.25000000
v 0.15000000 0.50000000 -1.20000000
v 0.15000000 0.50000000 0.00000000
v 0.15000000 1.60000000 -1.20000000
v 0.15000000 1.60000000 0.00000000
v 1.15000000 0.50000000 -1.20000000
v 1.15000000 0.50000000 0.00000000
v 1.15000000 1.60000000 -1.20000000
v 1.15000000 1.60000000 0.00000000
v -1.12500000 0.50000000 0.20000000
v -1.12500000 0.50000000 1.20000000
v -1.12500000 1.15000000 0.20000000
v -1.12500000 1.15000000 1.20000000
v 0.32500000 0.50000000 0.20000000
v 0.32500000 0.50000000 1.20000000
v 0.32500000 1.15000000 0.20000000
v 0.32500000 1.15000000 1.20000000
v 0.55000000 0.50000000 0.32500000
v 0.55000000 0.50000000 1.07500000
v 0.55000000 1.40000000 0.32500000
v 0.55000000 1.40000000 1.07500000
v 1.25000000 0.50000000 0.32500000
v 1.25000000 0.50000000 1.07500000
v 1.25000000 1.40000000 0.32500000
v 1.25000000 1.40000000 1.07500000
vn -0.57735027 -0.57735027 -0.57735027
vn -0.57735027 -0.57735027 0.57735027
vn -0.57735027 0.57735027 -0.57735027
vn -0.57735027 0.57735027 0.57735027
vn 0.57735027 -0.57735027 -0.57735027
vn 0.57735027 -0.57735027 0.57735027
vn 0.57735027 0.57735027 -0.57735027
vn 0.57735027 0.57735027 0.57735027
vn -0.57735027 -0.57735027 -0.57735027
vn -0.57735027 -0.57735027 0.57735027
vn -0.57735027 0.57735027 -0.57735027
vn -0.57735027 0.57735027 0.57735027
vn 0.57735027 -0.57735027 -0.57735027
vn 0.57735027 -0.57735027 0.57735027
vn 0.57735027 0.57735027 -0.57735027
vn 0.57735027 0.57735027 0.57735027
vn -0.57735027 -0.57735027 -0.57735027
vn -0.57735027 -0.57735027 0.57735027
vn -0.57735027 0.57735027 -0.57735027
vn -0.57735027 0.57735027 0.57735027
vn 0.57735027 -0.57735027 -0.57735027
vn 0.57735027 -0.57735027 0.57735027
vn 0.57735027 0.57735027 -0.57735027
vn 0.57735027 0.57735027 0.57735027
vn -0.57735027 -0.57735027 -0.57735027
vn -0.57735027 -0.57735027 0.57735027
vn -0.57735027 0.57735027 -0.57735027
vn -0.57735027 0.57735027 0.57735027
vn 0.57735027 -0.57735027 -0.57735027
vn 0.57735027 -0.57735027 0.57735027
vn 0.57735027 0.57735027 -0.57735027
vn 0.57735027 0.57735027 0.57735027
vn -0.57735027 -0.57735027 -0.57735027
vn -0.57735027 -0.57735027 0.57735027
vn -0.57735027 0.57735027 -0.57735027
vn -0.57735027 0.57735027 0.57735027
vn 0.57735027 -0.57735027 -0.57735027
vn 0.57735027 -0.57735027 0.57735027
vn 0.57735027 0.57735027 -0.57735027
vn 0.57735027 0.57735027 0.57735027
vn -0.57735027 -0.57735027 -0.57735027
vn -0.57735027 -0.57735027 0.57735027
vn -0.57735027 0.57735027 -0.57735027
vn -0.57735027 0.57735027 0.57735027
vn 0.57735027 -0.57735027 -0.57735027
vn 0.57735027 -0.57735027 0.57735027
vn 0.57735027 0.57735027 -0.57735027
vn 0.57735027 0.57735027 0.57735027
vn -0.57735027 -0.57735027 -0.57735027
vn -0.57735027 -0.57735027 0.57735027
vn -0.57735027 0.57735027 -0.57735027
vn -0.57735027 0.57735027 0.57735027
vn 0.57735027 -0.57735027 -0.57735027
vn 0.57735027 -0.57735027 0.57735027
vn 0.57735027 0.57735027 -0.57735027
vn 0.57735027 0.57735027 0.57735027
vn -0.57735027 -0.57735027 -0.57735027
vn -0.57735027 -0.57735027 0.57735027
vn -0.57735027 0.57735027 -0.57735027
vn -0.57735027 0.57735027 0.57735027
vn 0.57735027 -0.57735027 -0.57735027
vn 0.57735027 -0.57735027 0.57735027
vn 0.57735027 0.57735027 -0.57735027
vn 0.57735027 0.57735027 0.57735027
vn -0.57735027 -0.57735027 -0.57735027
vn -0.57735027 -0.57735027 0.57735027
vn -0.57735027 0.57735027 -0.57735027
vn -0.57735027 0.57735027 0.57735027
vn 0.57735027 -0.57735027 -0.57735027
vn 0.57735027 -0.57735027 0.57735027
vn 0.57735027 0.57735027 -0.57735027
vn 0.57735027 0.57735027 0.57735027
vn -0.57735027 -0.57735027 -0.57735027
vn -0.57735027 -0.57735027 0.57735027
vn -0.57735027 0.57735027 -0.57735027
vn -0.57735027 0.57735027 0.57735027
vn 0.57735027 -0.57735027 -0.57735027
vn 0.57735027 -0.57735027 0.57735027
vn 0.57735027 0.57735027 -0.57735027
vn 0.57735027 0.57735027 0.57735027
vn -0.57735027 -0.57735027 -0.57735027
vn -0.57735027 -0.57735027 0.57735027
vn -0.57735027 0.57735027 -0.57735027
vn -0.57735027 0.57735027 0.57735027
vn 0.57735027 -0.57735027 -0.57735027
vn 0.57735027 -0.57735027 0.57735027
vn 0.57735027 0.57735027 -0.57735027
vn 0.57735027 0.57735027 0.57735027
vn -0.57735027 -0.57735027 -0.57735027
vn -0.57735027 -0.57735027 0.57735027
vn -0.57735027 0.57735027 -0.57735027
vn -0.57735027 0.57735027 0.57735027
vn 0.57735027 -0.57735027 -0.57735027
vn 0.57735027 -0.57735027 0.57735027
vn 0.57735027 0.57735027 -0.57735027
vn 0.57735027 0.57735027 0.57735027
vn -0.57735027 -0.57735027 -0.57735027
vn -0.57735027 -0.57735027 0.57735027
vn -0.57735027 0.57735027 -0.57735027
vn -0.57735027 0.57735027 0.57735027
vn 0.57735027 -0.57735027 -0.57735027
vn 0.57735027 -0.57735027 0.57735027
vn 0.57735027 0.57735027 -0.57735027
vn 0.57735027 0.57735027 0.57735027
vn -0.57735027 -0.57735027 -0.57735027
vn -0.57735027 -0.57735027 0.57735027
vn -0.57735027 0.57735027 -0.57735027
vn -0.57735027 0.57735027 0.57735027
vn 0.57735027 -0.57735027 -0.57735027
vn 0.57735027 -0.57735027 0.57735027
vn 0.57735027 0.57735027 -0.57735027
vn 0.57735027 0.57735027 0.57735027
vn -0.57735027 -0.57735027 -0.57735027
vn -0.57735027 -0.57735027 0.57735027
vn -0.57735027 0.57735027 -0.57735027
vn -0.57735027 0.57735027 0.57735027
vn 0.57735027 -0.57735027 -0.57735027
vn 0.57735027 -0.57735027 0.57735027
vn 0.57735027 0.57735027 -0.57735027
vn 0.57735027 0.57735027 0.57735027
f 2//2 4//4 1//1
f 5//5 2//2 1//1
f 1//1 4//4 3//3
f 3//3 5//5 1//1
f 2//2 8//8 4//4
f 6//6 2//2 5//5
f 6//6 8//8 2//2
f 4//4 8//8 3//3
f 7//7 5//5 3//3
f 3//3 8//8 7//7
f 7//7 6//6 5//5
f 8//8 6//6 7//7
f 10//10 12//12 9//9
f 13//13 10//10 9//9
f 9//9 12//12 11//11
f 11//11 13//13 9//9
f 10//10 16//16 12//12
f 14//14 10//10 13//13
f 14//14 16//16 10//10
f 12//12 16//16 11//11
f 15//15 13//13 11//11
f 11//11 16//16 15//15
f 15//15 14//14 13//13
f 16//16 14//14 15//15
f 18//18 20//20 17//17
f 21//21 18//18 17//17
f 17//17 20//20 19//19
f 19//19 21//21 17//17
f 18//18 24//24 20//20
f 22//22 18//18 21//21
f 22//22 24//24 18//18
f 20//20 24//24 19//19
f 23//23 21//21 19//19
f 19//19 24//24 23//23
f 23//23 22//22 21//21
f 24//24 22//22 23//23
f 26//26 28//28 25//25
f 29//29 26//26 25//25
f 25//25 28//28 27//27
f 27//27 29//29 25//25
f 26//26 32//32 28//28
f 30//30 26//26 29//29
f 30//30 32//32 26//26
f 28//28 32//32 27//27
f 31//31 29//29 27//27
f 27//27 32//32 31//31
f 31//31 30//30 29//29
f 32//32 30//30 31//31
f 34//34 36//36 33//33
f 37//37 34//34 33//33
f 33//33 36//36 35//35
f 35//35 37//37 33//33
f 34//34 40//40 36//36
f 38//38 34//34 37//37
f 38//38 40//40 34//34
f 36//36 40//40 35//35
f 39//39 37//37 35//35
f 35//35 40//40 39//39
f 39//39 38//38 37//37
f 40//40 38//38 39//39
f 42//42 44//44 41//41
f 45//45 42//42 41//41
f 41//41 44//44 43//43
f 43//43 45//45 41//41
f 42//42 48//48 44//44
f 46//46 42//42 45//45
f 46//46 48//48 42//42
f 44//44 48//48 43//43
f 47//47 45//45 43//43
f 43//43 48//48 47//47
f 47//47 46//46 45//45
f 48//48 46//46 47//47
f 50//50 52//52 49//49
f 53//53 50//50 49//49
f 49//49 52//52 51//51
f 51//51 53//53 49//49
f 50//50 56//56 52//52
f 54//54 50//50 53//53
f 54//54 56//56 50//50
f 52//52 56//56 51//51
f 55//55 53//53 51//51
f 51//51 56//56 55//55
f 55//55 54//54 53//53
f 56//56 54//54 55//55
f 58//58 60//60 57//57
f 61//61 58//58 57//57
f 57//57 60//60 59//59
f 59//59 61//61 57//57
f 58//58 64//64 60//60
f 62//62 58//58 61//61
f 62//62 64//64 58//58
f 60//60 64//64 59//59
f 63//63 61//61 59//59
f 59//59 64//64 63//63
f 63//63 62//62 61//61
f 64//64 62//62 63//63
f 66//66 68//68 65//65
f 69//69 66//66 65//65
f 65//65 68//68 67//67
f 67//67 69//69 65//65
f 66//66 72//72 68//68
f 70//70 66//66 69//69
f 70//70 72//72 66//66
f 68//68 72//72 67//67
f 71//71 69//69 67//67
f 67//67 72//72 71//71
f 71//71 70//70 69//69
f 72//72 70//70 71//71
f 74//74 76//76 73//73
f 77//77 74//74 73//73
f 73//73 76//76 75//75
f 75//75 77//77 73//73
f 74//74 80//80 76//76
f 78//78 74//74 77//77
f 78//78 80//80 74//74
f 76//76 80//80 75//75
f 79//79 77//77 75//75
f 75//75 80//80 79//79
f 79//79 78//78 77//77
f 80//80 78//78 79//79
f 82//82 84//84 81//81
f 85//85 82//82 81//81
f 81//81 84//84 83//83
f 83//83 85//85 81//81
f 82//82 88//88 84//84
f 86//86 82//82 85//85
f 86//86 88//88 82//82
f 84//84 88//88 83//83
f 87//87 85//85 83//83
f 83//83 88//88 87//87
f 87//87 86//86 85//85
f 88//88 86//86 87//87
f 90//90 92//92 89//89
f 93//93 90//90 89//89
f 89//89 92//92 91//91
f 91//91 93//93 89//89
f 90//90 96//96 92//92
f 94//94 90//90 93//93
f 94//94 96//96 90//90
f 92//92 96//96 91//91
f 95//95 93//93 91//91
f 91//91 96//96 95//95
f 95//95 94//94 93//93
f 96//96 94//94 95//95
f 98//98 100//100 97//97
f 101//101 98//98 97//97
f 97//97 100//100 99//99
f 99//99 101//101 97//97
f 98//98 104//104 100//100
f 102//102 98//98 101//101
f 102//102 104//104 98//98
f 100//100 104//104 99//99
f 103//103 101//101 99//99
f 99//99 104//104 103//103
f 103//103 102//102 101//101
f 104//104 102//102 103//103
f 106//106 108//108 105//105
f 109//109 106//106 105//105
f 105//105 108//108 107//107
f 107//107 109//109 105//105
f 106//106 112//112 108//108
f 110//110 106//106 109//109
f 110//110 112//112 106//106
f 108//108 112//112 107//107
f 111//111 109//109 107//107
f 107//107 112//112 111//111
f 111//111 110//110 109//109
f 112//112 110//110 111//111
f 114//114 116//116 113//113
f 117//117 114//114 113//113
f 113//113 116//116 115//115
f 115//115 117//117 113//113
f 114//114 120//120 116//116
f 118//118 114//114 117//117
f 118//118 120//120 114//114
f 116//116 120//120 115//115
f 119//119 117//117 115//115
f 115//115 120//120 119//119
f 119//119 118//118 117//117
f 120//120 118//118 119//119

